<mxfile host="65bd71144e">
    <diagram id="CCBVtA-G9pLtg96RcLDo" name="Página-1">
        <mxGraphModel dx="582" dy="314" grid="1" gridSize="10" guides="1" tooltips="1" connect="1" arrows="1" fold="1" page="1" pageScale="1" pageWidth="827" pageHeight="1169" math="0" shadow="0">
            <root>
                <mxCell id="0"/>
                <mxCell id="1" parent="0"/>
                <mxCell id="2" value="Persona" style="swimlane;fontStyle=0;childLayout=stackLayout;horizontal=1;startSize=26;fillColor=none;horizontalStack=0;resizeParent=1;resizeParentMax=0;resizeLast=0;collapsible=1;marginBottom=0;" parent="1" vertex="1">
                    <mxGeometry x="289" y="20" width="250" height="110" as="geometry"/>
                </mxCell>
                <mxCell id="3" value="Nombre: 1 texto&#10;Apellidos: 1..* texto&#10;Fecha nacimiento: 1 tiempo&#10;Sexo: 1 texto&#10;Número de identificación:  1 texto numérico" style="text;strokeColor=none;fillColor=none;align=left;verticalAlign=top;spacingLeft=4;spacingRight=4;overflow=hidden;rotatable=0;points=[[0,0.5],[1,0.5]];portConstraint=eastwest;" parent="2" vertex="1">
                    <mxGeometry y="26" width="250" height="84" as="geometry"/>
                </mxCell>
            </root>
        </mxGraphModel>
    </diagram>
</mxfile>
